<?xml version="1.0" encoding="utf-8"?>
<!-- Svg Vector Icons : http://www.onlinewebfonts.com/icon -->
<!DOCTYPE svg PUBLIC "-//W3C//DTD SVG 1.1//EN" "http://www.w3.org/Graphics/SVG/1.1/DTD/svg11.dtd">
<svg version="1.1" xmlns="http://www.w3.org/2000/svg" xmlns:xlink="http://www.w3.org/1999/xlink" x="0px" y="0px" viewBox="0 0 1000 1000" enable-background="new 0 0 1000 1000" xml:space="preserve">
<metadata> Svg Vector Icons : http://www.onlinewebfonts.com/icon </metadata>
<g><g transform="translate(0.000000,512.000000) scale(0.100000,-0.100000)"><path d="M4939,5010.7c-17.3-3.8-113.3-113.3-213.2-243.9c-282.4-364.9-345.7-378.4-733.7-155.6c-374.5,217-405.3,205.5-509-182.5c-73-278.5-111.4-364.9-184.4-413c-99.9-65.3-157.5-69.1-455.2-28.8c-261.2,36.5-290,38.4-332.3,9.6c-84.5-55.7-90.3-88.3-55.7-341.9c44.2-316.9,42.3-399.5-7.7-482.1c-59.5-96-132.5-132.5-411-203.6c-403.3-105.6-414.9-136.4-201.7-503.2c130.6-222.8,138.3-242,140.2-355.3c0-151.7-21.1-180.5-299.6-393.8c-330.3-253.5-328.4-278.5,13.5-543.6C1948.5,973.4,1985,923.4,1985,775.5c0-69.1-25-126.8-144.1-330.3c-161.3-274.7-176.7-347.7-98-411c25-19.2,169-69.1,318.9-109.5c434.1-117.2,466.7-169,401.4-631.9c-34.6-263.1-36.5-288.1-7.7-330.4c53.8-82.6,94.1-88.4,393.7-50c284.3,36.5,364.9,32.7,451.4-23c76.8-50,103.7-109.5,180.5-393.8c40.3-149.8,88.4-288.1,107.6-309.2c61.5-69.1,140.2-49.9,397.6,99.9c197.8,113.3,253.5,138.3,341.9,144c144.1,11.5,199.7-28.8,407.2-301.6c251.6-330.4,278.5-330.4,535.9,3.8c99.9,128.7,205.5,249.7,238.2,268.9c36.5,21.1,94.1,34.6,153.7,34.6c84.5,0,126.8-17.3,345.7-144.1c276.6-159.4,345.7-176.7,407.2-97.9c21.1,25,69.1,165.2,109.5,311.2c82.6,301.5,124.9,372.6,247.8,420.6c80.7,30.7,99.9,30.7,378.4-9.6c268.9-36.5,295.8-38.4,340-9.6c80.7,53.8,86.4,94.1,48,393.7c-36.5,284.3-32.7,364.9,23.1,451.4c51.8,78.8,113.3,107.6,395.7,182.5c147.9,38.4,286.2,86.4,307.3,105.6c69.1,63.4,49.9,140.2-99.9,397.6c-113.3,197.8-138.3,253.5-144.1,341.9c-11.5,144.1,28.8,199.8,291.9,399.5c341.9,259.3,341.9,286.2-3.8,551.2c-257.4,199.8-293.9,249.7-293.9,397.6c0,67.2,26.9,128.7,144.1,332.3c153.7,267,172.9,341.9,105.6,403.3c-21.1,19.2-155.6,67.2-297.7,107.6c-320.8,88.3-370.7,117.2-430.3,234.3l-44.2,90.3l40.4,299.6c38.4,276.6,40.3,303.5,11.5,347.7c-55.7,82.6-94.1,86.4-391.8,48c-286.2-38.4-366.8-34.6-453.3,23.1c-76.8,49.9-103.7,109.5-180.6,393.7c-40.3,149.8-88.3,288.1-107.5,309.2c-61.5,69.2-140.2,50-397.6-99.9c-197.8-113.3-253.5-138.3-341.9-144.1c-144.1-11.5-199.8,28.8-399.5,291.9C5085,5012.7,5048.5,5039.5,4939,5010.7z M5371.2,3842.9c714.5-107.6,1336.8-532,1719-1173.5c363-610.8,428.3-1373.3,176.7-2064.8c-121-338.1-393.7-733.7-658.8-962.3c-336.1-290-701.1-472.5-1127.5-564.7c-240.1-51.9-751-50-989.2,5.8C3757.8-745.7,3162.4-280.9,2832,372.2c-92.2,184.4-190.1,495.6-222.8,708.8C2451.7,2127.7,2978,3143.8,3926.8,3622c171,86.4,491.7,190.2,683.8,219C4837.2,3877.5,5142.6,3877.5,5371.2,3842.9z"/><path d="M4883.3,3330.1l-84.5-178.6l-86.4-13.4c-48-5.8-136.4-17.3-197.8-25c-69.2-7.7-115.2-23.1-122.9-40.3c-5.8-15.4,48-80.7,138.3-165.2l147.9-140.2l-38.4-192.1c-21.1-105.6-34.6-197.8-30.7-205.5c19.2-30.7,74.9-13.4,220.9,71.1c82.6,48,159.4,86.4,171,86.4c11.5,0,90.3-40.3,174.8-88.3c84.5-48,169-84.5,186.3-80.7c36.5,7.7,36.5,25-9.6,255.5l-28.8,153.7l147.9,140.2c90.3,84.5,144.1,149.8,138.3,165.2c-7.7,17.3-53.8,32.7-122.9,40.3c-61.5,7.7-149.8,19.2-197.8,25l-86.4,13.4l-84.5,178.6c-57.6,117.2-96,176.7-117.1,176.7C4979.4,3506.8,4940.9,3447.3,4883.3,3330.1z"/><path d="M3544.6,2360.1l-90.3-188.2l-188.2-21.1c-103.7-11.5-199.8-32.7-211.3-46.1c-17.3-17.3,11.5-53.8,130.6-163.3l151.7-140.2l-32.6-172.9c-38.4-205.5-40.3-232.4-7.7-245.8c15.4-3.8,96,30.7,180.6,78.7c86.4,48,169,86.4,184.4,86.4s97.9-38.4,182.5-86.4c226.6-128.7,230.5-124.8,176.7,138.3l-40.3,188.2l146,140.2c78.7,76.8,144.1,151.7,144.1,165.2c0,32.7-42.3,42.3-236.2,59.5c-82.6,7.7-159.4,25-170.9,36.5c-9.6,11.5-55.7,94.1-99.9,184.4c-42.3,88.4-90.3,165.2-103.7,169C3646.4,2546.4,3600.3,2473.4,3544.6,2360.1z"/><path d="M6308.5,2521.5c-11.5-15.4-51.8-94.1-90.3-178.6c-36.5-82.6-76.8-157.5-88.4-163.3c-11.5-7.7-86.4-19.2-167.1-26.9c-190.1-17.3-232.4-26.9-232.4-59.5c0-13.5,65.3-88.4,144.1-165.2l144.1-140.2l-38.4-190.1c-51.9-263.1-50-263.1,176.7-136.4c84.5,48,167.1,86.4,182.5,86.4s97.9-38.4,184.4-86.4c84.5-48,165.2-82.6,180.6-78.7c32.7,13.4,30.7,40.3-7.7,245.8l-32.7,172.9l151.7,140.2c119.1,109.5,147.9,146,130.6,163.3c-11.5,13.4-107.5,34.6-211.3,46.1l-188.2,21.1l-90.3,188.2c-49.9,101.8-99.9,186.3-109.5,186.3C6339.2,2546.4,6321.9,2534.9,6308.5,2521.5z"/><path d="M4140,948.4c-9.6-13.4-49.9-94.1-88.4-178.6c-38.4-82.6-80.7-157.5-92.2-165.2c-13.5-7.7-94.1-21.1-182.5-26.9c-86.4-7.7-172.9-25-192.1-40.3c-32.7-23.1-23.1-36.5,115.2-174.8l147.9-151.7l-38.4-190.2c-26.9-132.5-32.7-195.9-19.2-209.4c15.4-15.4,74.9,7.7,201.7,74.9l182.5,96l170.9-90.3c94.1-51.8,180.6-92.2,192.1-92.2c28.8,0,26.9,53.8-11.5,251.6l-32.7,169l153.7,144c113.3,107.6,146,147.9,130.6,165.2c-11.5,11.5-90.3,30.8-172.9,40.3c-245.8,30.7-226.6,17.3-322.7,219C4195.7,971.4,4176.5,992.6,4140,948.4z"/><path d="M5718.8,790.9c-96-203.6-76.8-190.2-322.7-220.9c-82.6-9.6-161.3-28.8-172.9-40.3c-15.4-17.3,15.4-57.6,128.7-163.3l149.8-140.2l-32.7-203.6c-19.2-111.4-28.8-209.4-19.2-217.1c7.7-7.7,96,28.8,195.9,80.7l180.6,96l182.5-96c119.1-63.4,188.2-88.3,199.8-76.8c13.4,13.4,5.8,84.5-17.3,209.4c-21.1,105.6-32.6,195.9-28.8,201.7c5.8,5.8,73,74.9,147.9,151.7c128.7,128.7,138.3,142.1,105.6,165.2c-19.2,15.4-107.6,32.6-197.8,40.3c-90.3,7.7-172.9,23-184.4,36.5c-13.4,13.4-57.6,96-99.9,184.4c-44.2,88.4-90.3,165.2-103.7,169C5814.9,971.4,5772.6,904.2,5718.8,790.9z"/><path d="M6990.4-1562c-5.8-17.3-23-86.4-38.4-157.5c-65.3-288.1-161.3-449.5-326.5-545.5c-207.4-121-437.9-96-716.4,76.8l-82.6,50l49.9-140.2c28.8-76.8,163.3-447.5,299.6-822.1c136.4-374.5,243.9-695.3,240.1-710.7c-3.8-15.4-49.9-92.2-99.9-171c-63.4-99.9-96-134.5-105.6-115.2c-7.7,15.4-159.4,424.5-336.1,910.4c-176.7,485.9-322.7,885.5-324.6,889.3c-3.8,1.9-59.5-46.1-122.9-109.5l-117.2-113.3l403.4-1112.1c222.8-610.8,411-1121.7,418.7-1137.1c15.4-25,44.2,17.3,545.5,785.6c101.8,153.7,195.9,280.4,211.3,284.3c15.4,3.8,301.6-76.8,637.7-178.6c334.2-101.8,612.7-182.5,616.5-176.7c7.7,7.7-881.6,2466.2-898.9,2481.6c-5.8,5.8-61.5,17.3-126.7,25C7017.2-1535.1,6998-1537,6990.4-1562z"/><path d="M2805.1-1562c-53.8-11.5-67.2-46.1-505.2-1248.5c-247.8-679.9-445.6-1240.8-441.8-1244.6c3.8-3.8,280.4,74.9,612.7,174.8c334.2,101.8,618.5,184.4,633.8,184.4c17.3,0,178.6-228.6,370.7-524.4c186.3-286.2,351.5-534,363-547.4c19.2-21.1,26.9-17.3,44.2,28.8c9.6,28.8,197.8,541.7,414.9,1139l395.7,1085.2l-103.7,90.3c-55.7,49.9-121,130.6-144.1,176.7c-49.9,107.6-115.2,155.6-188.2,136.4c-28.8-5.8-107.6-44.2-176.7-84.5c-161.3-94.1-253.5-122.9-386.1-122.9c-146,0-288.1,51.9-391.8,142.1c-48,44.2-88.3,74.9-90.3,71.1c0-1.9-115.2-316.9-253.5-697.2l-253.5-689.6l-172.9-53.8c-94.1-28.8-178.6-53.8-184.4-53.8c-7.7,0,146,436,340,970c393.7,1081.4,395.7,1087.1,249.7,1083.3C2895.4-1548.5,2833.9-1554.3,2805.1-1562z"/></g></g>
</svg>